PathFileType	4	(X/Y/Z)	HSS_squat3.trc
DataRate	CameraRate	NumFrames	NumMarkers	Units	OrigDataRate	OrigDataStartFrame	OrigNumFrames
120.0	120.0	5	44	mm	120.0	244	972
Frame#	Time		R.Shoulder		Offset		L.Shoulder		R.Elbow		R.Wrist.Radial		R.Wrist		R.Hand		L.Elbow		L.Wrist.Radial		L.Wrist		L.Hand		R.Hip		V.Sacral		L.PSIS		L.Hip		R.Thigh.Upper		R.Thigh.Front		R.Thigh.Rear		X.Shell.Lower.Thigh.Right		R.Knee.Lateral		R.Shank.Upper		R.Shank.Front		R.Shank.Rear		X.Shell.Lower.Shank.Right		R.Ankle.Lateral		R.Heel		R.Toe		L.Thigh.Upper		L.Thigh.Front		L.Thigh.Rear		X.Shell.Lower.Thigh.Left		L.Knee.Lateral		L.Shank.Upper		L.Shank.Front		L.Shank.Rear		X.Shell.Lower.Shank.Left		L.Ankle.Lateral		L.Heel		L.Toe		R.Troc		L.Troc		R.PSIS		L.ASIS		R.ASIS
			X1	Y1	Z1	X2	Y2	Z2	X3	Y3	Z3	X4	Y4	Z4	X5	Y5	Z5	X6	Y6	Z6	X7	Y7	Z7	X8	Y8	Z8	X9	Y9	Z9	X10	Y10	Z10	X11	Y11	Z11	X12	Y12	Z12	X13	Y13	Z13	X14	Y14	Z14	X15	Y15	Z15	X16	Y16	Z16	X17	Y17	Z17	X18	Y18	Z18	X19	Y19	Z19	X20	Y20	Z20	X21	Y21	Z21	X22	Y22	Z22	X23	Y23	Z23	X24	Y24	Z24	X25	Y25	Z25	X26	Y26	Z26	X27	Y27	Z27	X28	Y28	Z28	X29	Y29	Z29	X30	Y30	Z30	X31	Y31	Z31	X32	Y32	Z32	X33	Y33	Z33	X34	Y34	Z34	X35	Y35	Z35	X36	Y36	Z36	X37	Y37	Z37	X38	Y38	Z38	X39	Y39	Z39	X40	Y40	Z40	X41	Y41	Z41	X42	Y42	Z42	X43	Y43	Z43	X44	Y44	Z44

244	2.02500	138.88290	1483.87231	-77.34205	-141.87048	1376.97644	28.95926	-194.56023	1497.89026	-80.26670	282.49768	1331.37476	-367.92990	50.29672	1412.13135	-481.08340	93.14475	1444.31079	-531.31506	7.03121	1459.42688	-550.78009	-348.26947	1352.46008	-371.69931	-112.01168	1392.10876	-491.41177	-152.23726	1439.32532	-528.74744	-64.98475	1436.58997	-543.50439	125.87785	1032.95740	-150.56302	-24.66518	1018.00610	-33.25163	-65.41934	1023.38721	-36.11444	-172.06819	1030.83679	-155.70065	180.49757	695.50427	-182.04367	168.39688	655.89746	-214.28886	191.99799	658.54712	-157.22012	177.67334	623.73969	-184.02043	171.68648	518.04767	-117.86642	232.48622	378.78836	-96.61105	214.82896	333.01672	-124.97874	222.50681	341.35233	-64.75580	219.34544	300.42841	-87.96025	190.07288	72.03197	-81.73026	142.52293	33.27586	-41.38660	201.36859	31.33714	-237.66383	-218.87334	695.01288	-197.25392	-201.04567	643.30713	-215.71071	-236.42183	660.82526	-166.64760	-227.24135	624.71942	-191.92516	-214.66130	509.76025	-121.65582	-274.12225	316.62048	-84.28817	-260.62631	291.16406	-112.42250	-263.83322	276.71655	-54.00417	-269.59225	246.25243	-76.80064	-240.61949	75.87259	-95.20695	-196.65714	34.89399	-41.79787	-241.27066	32.32825	-241.14015	163.45837	890.94379	-161.57108	-211.03128	900.61005	-157.40892	18.90911	1021.51874	-34.14387	-129.61772	997.30402	-221.66277	94.22050	996.05615	-212.72797
245	2.03333	138.87927	1483.88464	-77.26368	-141.84422	1376.99744	29.02758	-194.50914	1497.91187	-80.14472	282.63202	1331.68298	-367.83194	50.39314	1412.22681	-481.10529	93.22281	1444.48010	-531.30396	7.10615	1459.50000	-550.78510	-348.30405	1352.61206	-371.66608	-111.89263	1392.20459	-491.32468	-152.23003	1439.46106	-528.65198	-64.82694	1436.69250	-543.45825	125.88046	1032.97424	-150.46103	-24.63745	1018.00153	-33.09763	-65.39964	1023.37122	-36.01758	-172.03818	1030.82898	-155.54872	180.50380	695.50970	-181.93839	168.41835	655.92218	-214.19135	192.00687	658.56061	-157.13670	177.67943	623.74396	-183.93404	171.70190	518.05200	-117.76709	232.48412	378.79471	-96.56122	214.85005	333.02570	-124.90440	222.51006	341.34280	-64.70815	219.35133	300.43454	-87.91472	190.08537	72.03468	-81.71349	142.54892	33.27267	-41.37966	201.36276	31.32322	-237.67923	-218.87978	695.03040	-197.14603	-201.05185	643.31561	-215.61060	-236.42224	660.83466	-166.50787	-227.23238	624.74194	-191.81171	-214.66898	509.75955	-121.56677	-274.11160	316.62015	-84.21736	-260.61798	291.17215	-112.37414	-263.79596	276.71664	-53.93259	-269.57141	246.25082	-76.73672	-240.61658	75.87170	-95.18204	-196.67397	34.88446	-41.75977	-241.24922	32.32415	-241.10805	163.49541	890.95807	-161.45502	-211.02528	900.60596	-157.26172	18.92423	1021.52588	-33.96514	-129.58879	997.30945	-221.51741	94.27110	996.04913	-212.58759
246	2.04167	138.84903	1483.90100	-77.12112	-141.82404	1377.02588	29.14045	-194.47870	1497.94922	-80.01048	282.73212	1331.97058	-367.70761	50.58287	1412.14966	-481.30148	93.35149	1444.87878	-531.24237	7.20408	1459.58093	-550.80115	-348.29727	1352.74390	-371.60989	-112.00262	1392.26978	-491.28210	-152.21149	1439.49243	-528.58331	-64.78196	1436.76196	-543.47748	125.86589	1032.96985	-150.40605	-24.57231	1018.00012	-32.96179	-65.38108	1023.36780	-35.94313	-172.01582	1030.82178	-155.35246	180.51443	695.51086	-181.82561	168.40891	655.92377	-214.09077	192.01283	658.56323	-157.08012	177.67778	623.74548	-183.85846	171.67085	518.03546	-117.70747	232.50246	378.80148	-96.50952	214.84093	333.02112	-124.86663	222.51674	341.32721	-64.65759	219.36971	300.42618	-87.87811	190.10257	72.02103	-81.71638	142.55103	33.26460	-41.38623	201.36333	31.33385	-237.65282	-218.89888	695.02740	-197.05023	-201.03238	643.33508	-215.46431	-236.41707	660.83777	-166.41138	-227.23997	624.75464	-191.68752	-214.65147	509.76624	-121.50878	-274.09698	316.61658	-84.17641	-260.62610	291.19049	-112.31506	-263.78268	276.70074	-53.84565	-269.54681	246.25259	-76.66434	-240.62086	75.86326	-95.14890	-196.69005	34.89048	-41.77567	-241.25497	32.33385	-241.11978	163.52455	890.95825	-161.34062	-211.00267	900.61517	-157.08145	18.95912	1021.52838	-33.78945	-129.57747	997.28607	-221.37430	94.30403	996.05823	-212.46025
247	2.05000	138.81555	1483.93884	-77.03285	-141.82613	1377.06189	29.23217	-194.43097	1497.97607	-79.92053	282.79297	1332.17627	-367.61420	50.71959	1412.22827	-481.35129	93.43950	1445.09131	-531.24475	7.29038	1459.67102	-550.78015	-348.30530	1352.90161	-371.51846	-111.96162	1392.40808	-491.21057	-152.23672	1439.75391	-528.53320	-64.69947	1436.85400	-543.45435	125.88564	1032.98169	-150.31511	-24.53644	1017.99280	-32.85165	-65.37889	1023.36609	-35.81001	-172.01503	1030.82690	-155.20480	180.53549	695.51074	-181.70139	168.36000	655.94269	-214.04810	192.01237	658.54846	-157.03119	177.65565	623.76282	-183.80446	171.68477	518.04791	-117.58917	232.48264	378.78897	-96.43250	214.85861	333.01947	-124.80971	222.51773	341.32169	-64.55988	219.34111	300.40317	-87.82833	190.08000	72.02366	-81.69861	142.54128	33.25003	-41.38908	201.37779	31.32764	-237.65933	-218.90761	695.03680	-196.98647	-201.04750	643.35132	-215.37915	-236.43068	660.83820	-166.23589	-227.23550	624.78101	-191.57819	-214.64038	509.76495	-121.44886	-274.06964	316.62540	-84.12565	-260.61179	291.16223	-112.25681	-263.75195	276.69366	-53.78981	-269.53973	246.25351	-76.61889	-240.61351	75.87280	-95.15502	-196.68401	34.86757	-41.76769	-241.25824	32.33225	-241.09528	163.53271	890.96564	-161.24011	-210.98070	900.61670	-156.94664	18.93077	1021.53961	-33.66588	-129.61752	997.31659	-221.22820	94.33532	996.06873	-212.33475
248	2.05833	138.80000	1483.97217	-76.89039	-141.81673	1377.08582	29.36039	-194.38364	1498.00513	-79.84824	282.84479	1332.42908	-367.45230	50.74376	1412.33911	-481.36349	93.47552	1445.24390	-531.21808	7.39898	1459.75549	-550.78448	-348.29468	1353.10229	-371.38327	-112.06806	1392.52539	-491.22479	-152.23683	1439.91382	-528.49701	-64.55138	1436.95251	-543.39996	125.88834	1033.00586	-150.23343	-24.52528	1018.02008	-32.67033	-65.37218	1023.37567	-35.69217	-172.00385	1030.84924	-155.05219	180.53429	695.52716	-181.63541	168.35237	655.96381	-213.93224	192.00346	658.54901	-156.96739	177.64246	623.76929	-183.71976	171.64226	518.04443	-117.54502	232.49355	378.79120	-96.36733	214.87474	333.02258	-124.77239	222.51242	341.31628	-64.51505	219.36032	300.39951	-87.81363	190.09715	72.01544	-81.71162	142.53601	33.24866	-41.36363	201.35268	31.32449	-237.67760	-218.92342	695.04791	-196.87115	-201.04707	643.36835	-215.24548	-236.41977	660.84515	-166.11287	-227.23383	624.79321	-191.50624	-214.63432	509.75760	-121.36630	-274.06204	316.62427	-84.06673	-260.62448	291.18549	-112.17288	-263.72348	276.68719	-53.70840	-269.52768	246.24802	-76.55807	-240.62668	75.86425	-95.14533	-196.67744	34.86166	-41.77665	-241.23755	32.33963	-241.09016	163.55962	890.97864	-161.12758	-210.97121	900.60852	-156.79387	18.92964	1021.53113	-33.48427	-129.59676	997.32129	-221.10187	94.35064	996.06909	-212.20651
